<svg width="161" height="30" viewBox="0 0 161 30" fill="none" xmlns="http://www.w3.org/2000/svg">
<path d="M1.19922 0.5625H4.67578L12.1172 23.7461L19.5391 0.5625H23.0156L13.4648 29H10.7305L1.19922 0.5625ZM0.0664062 0.5625H3.11328L3.64062 17.9062V29H0.0664062V0.5625ZM21.082 0.5625H24.1289V29H20.5547V17.9062L21.082 0.5625Z" fill="#3AAE4D"/>
<path d="M29.1094 19.4492V17.4375C29.1094 15.7969 29.3177 14.3581 29.7344 13.1211C30.151 11.8711 30.7305 10.8294 31.4727 9.99609C32.2148 9.16276 33.0807 8.53776 34.0703 8.12109C35.0599 7.69141 36.1211 7.47656 37.2539 7.47656C38.4128 7.47656 39.487 7.69141 40.4766 8.12109C41.4661 8.53776 42.332 9.16276 43.0742 9.99609C43.8294 10.8294 44.4154 11.8711 44.832 13.1211C45.2487 14.3581 45.457 15.7969 45.457 17.4375V19.4492C45.457 21.0898 45.2487 22.5352 44.832 23.7852C44.4154 25.0221 43.8359 26.0573 43.0938 26.8906C42.3516 27.724 41.4857 28.349 40.4961 28.7656C39.5065 29.1823 38.4388 29.3906 37.293 29.3906C36.1471 29.3906 35.0794 29.1823 34.0898 28.7656C33.1003 28.349 32.2279 27.724 31.4727 26.8906C30.7305 26.0573 30.151 25.0221 29.7344 23.7852C29.3177 22.5352 29.1094 21.0898 29.1094 19.4492ZM32.5664 17.4375V19.4492C32.5664 20.6081 32.6836 21.6237 32.918 22.4961C33.1523 23.3685 33.4844 24.0977 33.9141 24.6836C34.3438 25.2695 34.8451 25.7122 35.418 26.0117C35.9909 26.2982 36.6159 26.4414 37.293 26.4414C38.0742 26.4414 38.7578 26.2982 39.3438 26.0117C39.9427 25.7122 40.4375 25.2695 40.8281 24.6836C41.2188 24.0977 41.5117 23.3685 41.707 22.4961C41.9023 21.6237 42 20.6081 42 19.4492V17.4375C42 16.2786 41.8828 15.2695 41.6484 14.4102C41.4141 13.5378 41.082 12.8086 40.6523 12.2227C40.2227 11.6237 39.7148 11.181 39.1289 10.8945C38.556 10.5951 37.931 10.4453 37.2539 10.4453C36.5898 10.4453 35.9714 10.5951 35.3984 10.8945C34.8255 11.181 34.3242 11.6237 33.8945 12.2227C33.4779 12.8086 33.1523 13.5378 32.918 14.4102C32.6836 15.2695 32.5664 16.2786 32.5664 17.4375ZM62.9766 26.0312V29H50.1836V26.0312H62.9766ZM62.5859 10.4258L50.9648 29H48.8555V26.3438L60.3984 7.86719H62.5859V10.4258ZM61.082 7.86719V10.8555H48.9141V7.86719H61.082ZM77.5273 25.3867V13.9219C77.5273 13.0885 77.3971 12.418 77.1367 11.9102C76.8893 11.4023 76.5117 11.0312 76.0039 10.7969C75.5091 10.5625 74.8841 10.4453 74.1289 10.4453C73.3997 10.4453 72.7682 10.5951 72.2344 10.8945C71.7135 11.194 71.3099 11.5911 71.0234 12.0859C70.75 12.5807 70.6133 13.1276 70.6133 13.7266H67.1562C67.1562 12.9714 67.319 12.2227 67.6445 11.4805C67.9831 10.7383 68.4648 10.0677 69.0898 9.46875C69.7148 8.85677 70.4635 8.375 71.3359 8.02344C72.2214 7.65885 73.2109 7.47656 74.3047 7.47656C75.6068 7.47656 76.7591 7.69141 77.7617 8.12109C78.7643 8.53776 79.5521 9.22135 80.125 10.1719C80.6979 11.1224 80.9844 12.3854 80.9844 13.9609V24.3906C80.9844 25.0938 81.0365 25.8424 81.1406 26.6367C81.2578 27.431 81.4206 28.1146 81.6289 28.6875V29H78.0547C77.8854 28.5833 77.7552 28.0299 77.6641 27.3398C77.5729 26.6367 77.5273 25.9857 77.5273 25.3867ZM78.0742 16.1875L78.1133 18.7266H75.7109C74.8906 18.7266 74.1419 18.8177 73.4648 19C72.8008 19.1823 72.2279 19.4492 71.7461 19.8008C71.2643 20.1393 70.8932 20.5625 70.6328 21.0703C70.3854 21.5781 70.2617 22.1576 70.2617 22.8086C70.2617 23.6549 70.3789 24.332 70.6133 24.8398C70.8477 25.3346 71.1992 25.6927 71.668 25.9141C72.1367 26.1354 72.7292 26.2461 73.4453 26.2461C74.3177 26.2461 75.0859 26.0443 75.75 25.6406C76.4141 25.237 76.9284 24.7487 77.293 24.1758C77.6706 23.6029 77.8464 23.069 77.8203 22.5742L78.582 24.1953C78.5299 24.7031 78.3607 25.2565 78.0742 25.8555C77.8008 26.4414 77.4167 27.0078 76.9219 27.5547C76.4271 28.0885 75.8411 28.5312 75.1641 28.8828C74.5 29.2214 73.7513 29.3906 72.918 29.3906C71.694 29.3906 70.6198 29.1562 69.6953 28.6875C68.7839 28.2188 68.0742 27.5286 67.5664 26.6172C67.0586 25.7057 66.8047 24.5794 66.8047 23.2383C66.8047 22.2227 66.9805 21.2852 67.332 20.4258C67.6836 19.5664 68.2044 18.8242 68.8945 18.1992C69.5846 17.5612 70.4505 17.0664 71.4922 16.7148C72.5469 16.3633 73.7643 16.1875 75.1445 16.1875H78.0742ZM89.8125 12.3789V29H86.3555V7.86719H89.6172L89.8125 12.3789ZM88.9727 17.6328L87.5664 17.5742C87.5534 16.1289 87.7161 14.7943 88.0547 13.5703C88.4062 12.3333 88.901 11.2591 89.5391 10.3477C90.1901 9.4362 90.9648 8.73307 91.8633 8.23828C92.7617 7.73047 93.7578 7.47656 94.8516 7.47656C95.7109 7.47656 96.4922 7.61979 97.1953 7.90625C97.8984 8.17969 98.4974 8.6224 98.9922 9.23438C99.487 9.84635 99.8646 10.6406 100.125 11.6172C100.398 12.5807 100.535 13.7591 100.535 15.1523V29H97.0781V15.1133C97.0781 14.0065 96.9544 13.1211 96.707 12.457C96.4727 11.7799 96.1081 11.2917 95.6133 10.9922C95.1315 10.6797 94.5195 10.5234 93.7773 10.5234C93.1003 10.5234 92.4688 10.7122 91.8828 11.0898C91.2969 11.4674 90.7826 11.9883 90.3398 12.6523C89.9102 13.3164 89.5716 14.0781 89.3242 14.9375C89.0898 15.7839 88.9727 16.6823 88.9727 17.6328ZM113.445 7.86719V10.6406H103.582V7.86719H113.445ZM106.805 2.73047H110.262V23.7656C110.262 24.4818 110.346 25.0221 110.516 25.3867C110.698 25.7513 110.926 25.9922 111.199 26.1094C111.473 26.2266 111.766 26.2852 112.078 26.2852C112.312 26.2852 112.573 26.2591 112.859 26.207C113.146 26.1419 113.341 26.0898 113.445 26.0508L113.426 29C113.191 29.0911 112.879 29.1758 112.488 29.2539C112.098 29.3451 111.603 29.3906 111.004 29.3906C110.262 29.3906 109.572 29.2148 108.934 28.8633C108.296 28.5117 107.781 27.9258 107.391 27.1055C107 26.2721 106.805 25.1523 106.805 23.7461V2.73047ZM121.277 7.86719V29H117.84V7.86719H121.277ZM117.645 2.26172C117.645 1.67578 117.807 1.18099 118.133 0.777344C118.458 0.373698 118.947 0.171875 119.598 0.171875C120.249 0.171875 120.737 0.373698 121.062 0.777344C121.401 1.18099 121.57 1.67578 121.57 2.26172C121.57 2.82161 121.401 3.30339 121.062 3.70703C120.737 4.09766 120.249 4.29297 119.598 4.29297C118.947 4.29297 118.458 4.09766 118.133 3.70703C117.807 3.30339 117.645 2.82161 117.645 2.26172ZM130.203 12.3789V29H126.746V7.86719H130.008L130.203 12.3789ZM129.363 17.6328L127.957 17.5742C127.944 16.1289 128.107 14.7943 128.445 13.5703C128.797 12.3333 129.292 11.2591 129.93 10.3477C130.581 9.4362 131.355 8.73307 132.254 8.23828C133.152 7.73047 134.148 7.47656 135.242 7.47656C136.102 7.47656 136.883 7.61979 137.586 7.90625C138.289 8.17969 138.888 8.6224 139.383 9.23438C139.878 9.84635 140.255 10.6406 140.516 11.6172C140.789 12.5807 140.926 13.7591 140.926 15.1523V29H137.469V15.1133C137.469 14.0065 137.345 13.1211 137.098 12.457C136.863 11.7799 136.499 11.2917 136.004 10.9922C135.522 10.6797 134.91 10.5234 134.168 10.5234C133.491 10.5234 132.859 10.7122 132.273 11.0898C131.688 11.4674 131.173 11.9883 130.73 12.6523C130.301 13.3164 129.962 14.0781 129.715 14.9375C129.48 15.7839 129.363 16.6823 129.363 17.6328ZM153.68 29.3906C152.417 29.3906 151.277 29.2018 150.262 28.8242C149.246 28.4466 148.38 27.8737 147.664 27.1055C146.948 26.3242 146.401 25.3411 146.023 24.1562C145.646 22.9714 145.457 21.5716 145.457 19.957V17.5742C145.457 15.7122 145.672 14.1367 146.102 12.8477C146.544 11.5586 147.137 10.5234 147.879 9.74219C148.621 8.94792 149.461 8.375 150.398 8.02344C151.336 7.65885 152.299 7.47656 153.289 7.47656C154.617 7.47656 155.75 7.69141 156.688 8.12109C157.625 8.55078 158.387 9.1888 158.973 10.0352C159.559 10.8815 159.988 11.9232 160.262 13.1602C160.548 14.3971 160.691 15.8229 160.691 17.4375V19.4492H147.488V16.5H157.234V16.0117C157.182 14.918 157.033 13.9544 156.785 13.1211C156.551 12.2878 156.16 11.6367 155.613 11.168C155.066 10.6862 154.292 10.4453 153.289 10.4453C152.651 10.4453 152.059 10.556 151.512 10.7773C150.978 10.9857 150.516 11.3568 150.125 11.8906C149.747 12.4115 149.448 13.1341 149.227 14.0586C149.018 14.9831 148.914 16.1549 148.914 17.5742V19.957C148.914 21.0898 149.018 22.0664 149.227 22.8867C149.448 23.694 149.767 24.3646 150.184 24.8984C150.613 25.4193 151.134 25.8099 151.746 26.0703C152.371 26.3177 153.081 26.4414 153.875 26.4414C155.034 26.4414 155.991 26.2201 156.746 25.7773C157.501 25.3216 158.159 24.7422 158.719 24.0391L160.535 26.207C160.158 26.7409 159.663 27.2552 159.051 27.75C158.452 28.2318 157.71 28.6289 156.824 28.9414C155.952 29.2409 154.904 29.3906 153.68 29.3906Z" fill="white"/>
</svg>
